<svg id="Capa_1" enable-background="new 0 0 497 497" height="512" viewBox="0 0 497 497" width="512" xmlns="http://www.w3.org/2000/svg"><g><path d="m0 473.394c0 8.284 6.716 15 15 15h449c8.284 0 15-6.716 15-15v-439.788c0-8.284-6.716-15-15-15h-439c-8.284 0-15 6.716-15 15l-10 82.184z" fill="#edf5fa"/><path d="m356.956 279.535c0 65.421-43.034 118.456-108.456 118.456-62.902 0-114.353-49.029-118.222-110.955-.155-2.48 9.766-4.981 9.766-7.5s-9.921-5.02-9.766-7.501c3.29-52.657 40.983-95.988 90.865-107.78 8.782-2.076 17.941-1.175 27.357-1.175 65.421-.001 108.456 51.034 108.456 116.455z" fill="#6cf5c2"/><path d="m248.5 162.079c-4.566 0-9.069.268-13.5.77 21.709 2.463 41.638 9.793 58.164 22.366 28.435 21.634 46.792 55.831 46.792 94.319 0 60.855-45.893 110.984-104.956 117.686 4.431.503 8.934.77 13.5.77 62.902 0 114.353-49.029 118.222-110.955.155-2.48-9.766-4.981-9.766-7.501s9.921-5.02 9.766-7.501c-3.29-52.657-40.983-95.988-90.865-107.781-8.782-2.074-17.941-2.173-27.357-2.173z" fill="#05e39c"/><path d="m472 10.606h-20c8.284 0 15 4.716 15 13v449.788c0 8.284-6.716 15-15 15h30c8.284 0 15-6.716 15-15v-357.604l-10-92.184c0-8.285-6.716-13-15-13z" fill="#d0e7f2"/><path d="m274.855 167.26c-8.782-2.076-16.939-4.181-26.355-4.181-4.566 0-9.07-1.74-13.501-1.236-4.707.536-9.331 1.347-13.855 2.417-22.272 18.431-37.807 58.974-39.257 107.775h-51.6c-.155 2.481-.243 4.98-.243 7.5s.088 5.019.243 7.5h51.6c1.451 48.801 16.985 89.343 39.257 107.775 8.782 2.076 17.939 3.181 27.356 3.181 9.416 0 18.574-1.105 27.356-3.181 22.272-18.432 37.806-58.974 39.257-107.775h24.602c13.621-3.725 17.241-4.98 17.241-7.5s-6.423-4.294-17.241-7.5h-24.602c-1.035-34.821-9.241-65.437-21.948-86.817-5.102-8.584-11.929-12.678-18.31-17.958zm8.817 192.681c-9.708 19.415-22.527 30.549-35.172 30.549s-25.465-11.135-35.172-30.549c-9.795-19.59-15.538-45.251-16.421-72.907h103.188c-.884 27.656-6.627 53.317-16.423 72.907zm-86.766-87.906c.883-27.656 6.626-53.316 16.421-72.907 9.708-19.414 22.527-30.549 35.172-30.549s25.465 11.135 35.172 30.549c9.795 19.59 15.538 45.251 16.421 72.907z" fill="#edf5fa"/><path d="m470 8.606h-455c-8.284 0-15 6.716-15 15v92.184h485v-92.184c0-8.285-6.716-15-15-15z" fill="#978ecb"/><path d="m482 8.606h-30c8.284 0 15 6.716 15 15v92.184h30v-92.184c0-8.285-6.716-15-15-15z" fill="#6e61b6"/><path d="m214.415 62.198c0 9.826-6.965 16.791-16.791 16.791-2.457 0-4.797.502-6.925-.398-6.386-2.701-10.866-9.024-10.866-16.393 0-7.34 4.445-13.642 10.79-16.36 2.149-.921 4.516-.431 7.002-.431 9.825 0 16.79 6.965 16.79 16.791z" fill="#6cf5c2"/><path d="m197.624 44.407c-2.486 0-4.851.513-7 1.434 6.345 2.719 10.791 9.017 10.791 16.357s-4.446 13.638-10.791 16.357c2.149.921 4.514 1.434 7 1.434 9.826 0 17.791-7.965 17.791-17.791s-7.965-17.791-17.791-17.791z" fill="#05e39c"/><path d="m143.001 62.198c0 9.826-6.965 16.791-16.791 16.791-2.456 0-4.797.502-6.925-.398-6.386-2.701-10.866-9.024-10.866-16.393 0-7.34 4.445-13.642 10.79-16.36 2.149-.921 4.516-.431 7.002-.431 9.824 0 16.79 6.965 16.79 16.791z" fill="#fee97d"/><path d="m126.209 44.407c-2.486 0-4.851.513-7 1.434 6.345 2.719 10.791 9.017 10.791 16.357s-4.446 13.638-10.791 16.357c2.149.921 4.514 1.434 7 1.434 9.826 0 17.791-7.965 17.791-17.791s-7.965-17.791-17.791-17.791z" fill="#fedf30"/><path d="m71.586 62.198c0 9.826-6.965 16.791-16.791 16.791-2.457 0-4.797.502-6.925-.398-6.386-2.701-10.866-9.024-10.866-16.393 0-7.34 4.445-13.642 10.79-16.36 2.149-.921 4.516-.431 7.002-.431 9.824 0 16.79 6.965 16.79 16.791z" fill="#e592b8"/><path d="m54.795 44.407c-2.486 0-4.851.513-7 1.434 6.345 2.719 10.791 9.017 10.791 16.357s-4.446 13.638-10.791 16.357c2.149.921 4.514 1.434 7 1.434 9.826 0 17.791-7.965 17.791-17.791s-7.966-17.791-17.791-17.791z" fill="#e175a5"/><g fill="#d0e7f2"><path d="m235.004 161.848c-.001 0-.003.001-.004.002 21.709 2.463 41.634 10.799 58.159 23.372-5.101-8.582-10.924-15.682-17.304-20.962-8.782-2.076-17.939-3.181-27.355-3.181-4.564 0-9.067.265-13.496.769z"/><path d="m339.715 272.035c.155 2.481.241 4.98.241 7.5s-.086 5.019-.241 7.5h26.998c.155-2.481.243-4.98.243-7.5s-.088-5.019-.243-7.5z"/></g><path d="m341.775 443.105h-196.55c-24.916 0-45.114-20.198-45.114-45.114 0-24.916 20.198-45.114 45.114-45.114h196.55c24.916 0 45.114 20.198 45.114 45.114 0 24.915-20.198 45.114-45.114 45.114z" fill="#978ecb"/><path d="m351.775 352.876h-23c24.916 0 45.114 20.198 45.114 45.114 0 24.916-20.198 45.114-45.114 45.114h23c24.916 0 45.114-20.198 45.114-45.114 0-24.915-20.198-45.114-45.114-45.114z" fill="#6e61b6"/><g fill="#edf5fa"><path d="m197.956 371.722c-4.059-.807-8.011 1.829-8.82 5.892l-2.272 11.42-3.769-12.234c-1.219-3.959-5.418-6.178-9.376-4.96-2.611.804-4.458 2.908-5.068 5.381l-3.659 11.82-2.273-11.489c-.804-4.063-4.748-6.704-8.813-5.902-4.063.804-6.705 4.75-5.902 8.813l7.397 37.395c.071.358.168.711.29 1.055 1.184 3.331 4.343 5.56 7.875 5.56h.057c3.554-.024 6.711-2.301 7.855-5.666.023-.065.044-.131.064-.197l4.379-14.147 4.359 14.148c.031.102.064.203.1.303 1.184 3.332 4.343 5.56 7.874 5.56h.059c3.555-.025 6.711-2.304 7.854-5.671.105-.31.19-.626.254-.947l7.426-37.314c.809-4.062-1.828-8.011-5.891-8.82z"/><path d="m270.529 371.722c-4.061-.807-8.011 1.83-8.82 5.892l-2.273 11.419-3.769-12.233c-1.219-3.959-5.418-6.178-9.375-4.96-2.612.804-4.458 2.908-5.068 5.381l-3.659 11.82-2.272-11.489c-.804-4.064-4.75-6.709-8.813-5.902-4.063.804-6.706 4.75-5.902 8.813l7.396 37.395c.071.358.168.711.29 1.056 1.184 3.331 4.343 5.56 7.874 5.56h.057c3.555-.024 6.711-2.301 7.856-5.666.022-.065.043-.131.064-.197l4.379-14.147 4.358 14.148c.031.102.065.203.1.303 1.184 3.332 4.343 5.56 7.874 5.56h.059c3.555-.025 6.711-2.304 7.854-5.671.105-.31.19-.626.254-.947l7.426-37.314c.81-4.063-1.828-8.012-5.89-8.821z"/><path d="m343.102 371.722c-4.058-.807-8.011 1.829-8.82 5.892l-2.272 11.42-3.77-12.234c-1.22-3.959-5.417-6.178-9.376-4.96-2.611.804-4.458 2.908-5.068 5.381l-3.659 11.82-2.272-11.488c-.804-4.064-4.751-6.709-8.813-5.902-4.063.804-6.706 4.75-5.902 8.813l7.397 37.395c.071.358.168.711.29 1.056 1.184 3.332 4.343 5.56 7.874 5.56h.059c3.555-.025 6.711-2.304 7.854-5.671.022-.064.043-.128.063-.193l4.379-14.147 4.359 14.149c.031.102.064.203.1.303 1.184 3.331 4.343 5.56 7.875 5.56h.057c3.554-.024 6.711-2.301 7.855-5.666.106-.311.191-.629.255-.951l7.426-37.314c.809-4.065-1.829-8.014-5.891-8.823z"/></g></g></svg>