<svg height="512" viewBox="0 0 64 64" width="512" xmlns="http://www.w3.org/2000/svg"><g id="server-online-marketing-seo-database"><path d="m9 17h34a0 0 0 0 1 0 0v12a0 0 0 0 1 0 0h-34a6 6 0 0 1 -6-6 6 6 0 0 1 6-6z" fill="#46f8ff"/><path d="m39 17h4v12h-4z" fill="#00d7df"/><path d="m9 33h34a0 0 0 0 1 0 0v12a0 0 0 0 1 0 0h-34a6 6 0 0 1 -6-6 6 6 0 0 1 6-6z" fill="#46f8ff"/><path d="m39 33h4v12h-4z" fill="#00d7df"/><path d="m9 49h34a0 0 0 0 1 0 0v12a0 0 0 0 1 0 0h-34a6 6 0 0 1 -6-6 6 6 0 0 1 6-6z" fill="#46f8ff"/><path d="m39 49h4v12h-4z" fill="#00d7df"/><g fill="#ffde55"><path d="m15 53h4v4h-4z"/><path d="m15 37h4v4h-4z"/><path d="m15 21h4v4h-4z"/></g><path d="m10.41 21.59a2 2 0 0 1 -1.41 3.41 2.006 2.006 0 0 1 -2-2 1.994 1.994 0 0 1 3.41-1.41z" fill="#d80027"/><path d="m10.41 37.59a2 2 0 0 1 -1.41 3.41 2.006 2.006 0 0 1 -2-2 1.994 1.994 0 0 1 3.41-1.41z" fill="#d80027"/><path d="m10.41 53.59a2 2 0 0 1 -1.41 3.41 2.006 2.006 0 0 1 -2-2 1.994 1.994 0 0 1 3.41-1.41z" fill="#d80027"/><circle cx="46" cy="18" fill="#2488ff" r="15"/><path d="m61 18a15 15 0 0 1 -27.42 8.42 15.007 15.007 0 0 0 20.84-20.84 15.016 15.016 0 0 1 6.58 12.42z" fill="#005ece"/><path d="m46 2a16 16 0 0 0 -15.85 14h-21.15a7 7 0 0 0 -3 13.32v3.36a6.993 6.993 0 0 0 0 12.64v3.36a7 7 0 0 0 3 13.32h34a1 1 0 0 0 1-1v-12a1 1 0 0 0 -1-1h-3v-2h3a1 1 0 0 0 1-1v-11.14a16.659 16.659 0 0 0 2 .14 16 16 0 0 0 0-32zm-5.35 3.07c-2.08 2.71-3.46 6.98-3.62 11.93h-4.98a13.993 13.993 0 0 1 8.6-11.93zm-3.62 13.93c.16 4.95 1.54 9.23 3.62 11.93a13.649 13.649 0 0 1 -4.15-2.67 13.982 13.982 0 0 1 -4.45-9.26zm.97 12.84v.16h-4v-2h1.45a16.821 16.821 0 0 0 2.55 1.84zm-34-8.84a5 5 0 0 1 5-5h21a16.659 16.659 0 0 0 .14 2h-8.14v2h8.53a17.335 17.335 0 0 0 .66 2h-9.19v2h10.16a14.3 14.3 0 0 0 1.39 2h-24.55a5 5 0 0 1 -5-5zm28 7v2h-18v-2zm-20 0v2h-3a6.634 6.634 0 0 0 -1 .08v-2.16a6.634 6.634 0 0 0 1 .08zm30 20v10h-33a5 5 0 0 1 0-10zm-34-1.92v-2.16a6.634 6.634 0 0 0 1 .08h3v2h-3a6.634 6.634 0 0 0 -1 .08zm6-.08v-2h18v2zm20 0v-2h4v2zm8-4h-33a5 5 0 0 1 0-10h33zm3-12.17c-3.18-.95-5.73-6.36-5.97-12.83h5.97zm0-14.83h-5.97c.24-6.47 2.79-11.88 5.97-12.83zm14.95 0h-4.98c-.16-4.96-1.54-9.23-3.63-11.93a13.994 13.994 0 0 1 8.61 11.93zm-12.95-12.83c3.18.95 5.73 6.36 5.97 12.83h-5.97zm0 27.66v-12.83h5.97c-.24 6.47-2.79 11.88-5.97 12.83zm4.34-.9c2.09-2.7 3.47-6.97 3.63-11.93h4.98a13.994 13.994 0 0 1 -8.61 11.93z"/><path d="m12 39a3 3 0 1 0 -3 3 3 3 0 0 0 3-3zm-4 0a1 1 0 1 1 1 1 1 1 0 0 1 -1-1z"/><path d="m15 42h4a1 1 0 0 0 1-1v-4a1 1 0 0 0 -1-1h-4a1 1 0 0 0 -1 1v4a1 1 0 0 0 1 1zm1-4h2v2h-2z"/><path d="m22 36h14v2h-14z"/><path d="m38 36h2v2h-2z"/><path d="m22 40h14v2h-14z"/><path d="m38 40h2v2h-2z"/><path d="m12 23a3 3 0 1 0 -3 3 3 3 0 0 0 3-3zm-4 0a1 1 0 1 1 1 1 1 1 0 0 1 -1-1z"/><path d="m15 26h4a1 1 0 0 0 1-1v-4a1 1 0 0 0 -1-1h-4a1 1 0 0 0 -1 1v4a1 1 0 0 0 1 1zm1-4h2v2h-2z"/><path d="m6 55a3 3 0 1 0 3-3 3 3 0 0 0 -3 3zm4 0a1 1 0 1 1 -1-1 1 1 0 0 1 1 1z"/><path d="m15 58h4a1 1 0 0 0 1-1v-4a1 1 0 0 0 -1-1h-4a1 1 0 0 0 -1 1v4a1 1 0 0 0 1 1zm1-4h2v2h-2z"/><path d="m22 52h14v2h-14z"/><path d="m38 52h2v2h-2z"/><path d="m22 56h14v2h-14z"/><path d="m38 56h2v2h-2z"/><path d="m46 55h2v2h-2z"/><path d="m58 52a3 3 0 0 1 -3 3h-5v2h5a5.006 5.006 0 0 0 5-5v-20h-2z"/><path d="m7 12h2v2h-2z"/><path d="m9 9a3 3 0 0 1 3-3h21v-2h-21a5.006 5.006 0 0 0 -5 5v1h2z"/></g></svg>